<?xml version="1.0" encoding="UTF-8"?>
<svg xmlns="http://www.w3.org/2000/svg" xmlns:xlink="http://www.w3.org/1999/xlink" width="500pt" height="500pt" viewBox="0 0 500 500" version="1.1">
<g id="surface1">
<path style=" stroke:none;fill-rule:nonzero;fill:#FFFFFF;fill-opacity:1;" d="M 196.550781 129.898438 C 194.382813 130.285156 192.445313 131.371094 190.972656 133 L 82.773438 240.886719 L 75.953125 248.015625 L 82.773438 255.144531 L 190.972656 363.035156 C 193.375 365.976563 197.210938 367.335938 200.929688 366.480469 C 204.613281 365.628906 207.519531 362.722656 208.371094 359.042969 C 209.226563 355.320313 207.867188 351.484375 204.921875 349.082031 L 113.777344 257.9375 L 406.746094 257.9375 C 410.3125 257.976563 413.644531 256.113281 415.464844 253.015625 C 417.246094 249.914063 417.246094 246.117188 415.464844 243.015625 C 413.644531 239.917969 410.3125 238.054688 406.746094 238.09375 L 113.777344 238.09375 L 204.921875 146.949219 C 208.140625 143.964844 208.992188 139.238281 207.054688 135.324219 C 205.15625 131.371094 200.855469 129.199219 196.550781 129.898438 Z "/>
</g>
</svg>
