<?xml version="1.0" encoding="UTF-8"?>
<svg xmlns="http://www.w3.org/2000/svg" xmlns:xlink="http://www.w3.org/1999/xlink" width="500pt" height="500pt" viewBox="0 0 500 500" version="1.1">
<g id="surface1">
<path style=" stroke:none;fill-rule:nonzero;fill:#FFFFFF;fill-opacity:1;" d="M 29.761719 39.683594 C 13.371094 39.683594 0 53.050781 0 69.445313 L 0 328.3125 C 14.53125 250.960938 30.808594 164.195313 31.621094 159.96875 C 36.660156 134.277344 56.035156 119.046875 83.707031 119.046875 L 466.269531 119.046875 L 466.269531 109.128906 C 466.269531 92.734375 452.898438 79.363281 436.507813 79.363281 L 178.882813 79.363281 C 176.128906 78.359375 170.472656 69.367188 167.410156 64.484375 C 159.777344 52.316406 151.949219 39.683594 138.890625 39.683594 Z M 83.707031 138.890625 C 70.996094 138.890625 55.183594 143.34375 51.152344 164 C 49.875 170.433594 11.238281 376.09375 0 435.886719 L 0 436.507813 C 0 452.898438 13.371094 466.269531 29.761719 466.269531 L 416.667969 466.269531 C 432.75 466.269531 445.886719 453.402344 446.429688 437.4375 L 495.722656 170.511719 L 496.03125 168.652344 C 496.03125 152.257813 482.664063 138.890625 466.269531 138.890625 Z "/>
</g>
</svg>
