<?xml version="1.0" encoding="UTF-8"?>
<svg xmlns="http://www.w3.org/2000/svg" xmlns:xlink="http://www.w3.org/1999/xlink" width="500pt" height="500pt" viewBox="0 0 500 500" version="1.1">
<g id="surface1">
<path style=" stroke:none;fill-rule:nonzero;fill:#FFFFFF;fill-opacity:1;" d="M 29.761719 39.683594 C 13.445313 39.683594 0 53.128906 0 69.445313 L 0 435.578125 C -0.621094 437.863281 -0.386719 440.265625 0.621094 442.398438 C 3.410156 455.921875 15.5 466.269531 29.761719 466.269531 L 416.667969 466.269531 C 431.46875 466.269531 443.636719 455.109375 445.808594 440.847656 C 445.886719 440.226563 446.078125 439.609375 446.117188 438.988281 C 446.117188 438.792969 446.117188 438.5625 446.117188 438.367188 L 446.429688 436.816406 C 446.429688 436.703125 446.429688 436.625 446.429688 436.507813 L 495.722656 170.511719 L 496.03125 169.582031 L 496.03125 168.652344 C 496.03125 152.335938 482.585938 138.890625 466.269531 138.890625 L 466.269531 109.128906 C 466.269531 92.8125 452.824219 79.363281 436.507813 79.363281 L 178.882813 79.363281 C 178.921875 79.402344 178.804688 79.363281 178.570313 79.363281 C 178.261719 79.132813 177.371094 78.394531 175.78125 76.574219 C 173.339844 73.785156 170.511719 69.132813 167.410156 64.175781 C 164.308594 59.214844 160.976563 53.945313 156.871094 49.292969 C 152.761719 44.644531 147.027344 39.683594 138.890625 39.683594 Z M 29.761719 59.523438 L 138.890625 59.523438 C 138.269531 59.523438 139.546875 59.523438 141.988281 62.3125 C 144.429688 65.105469 147.257813 69.753906 150.359375 74.714844 C 153.460938 79.675781 156.871094 84.945313 160.898438 89.597656 C 164.929688 94.246094 170.433594 99.207031 178.570313 99.207031 L 436.507813 99.207031 C 442.089844 99.207031 446.429688 103.546875 446.429688 109.128906 L 446.429688 138.890625 L 79.363281 138.890625 C 63.746094 138.890625 51.308594 151.445313 50.222656 166.789063 L 49.914063 166.789063 L 49.601563 168.652344 L 19.839844 329.242188 L 19.839844 69.445313 C 19.839844 63.863281 24.179688 59.523438 29.761719 59.523438 Z M 79.363281 158.730469 L 466.269531 158.730469 C 471.851563 158.730469 476.191406 163.070313 476.191406 168.652344 L 427.515625 431.859375 L 427.207031 432.476563 C 427.089844 432.863281 426.976563 433.292969 426.898438 433.71875 C 426.78125 434.105469 426.664063 434.53125 426.585938 434.957031 C 426.585938 435.152344 426.585938 435.382813 426.585938 435.578125 C 426.585938 435.695313 426.585938 435.773438 426.585938 435.886719 C 426.433594 436.390625 426.355469 436.894531 426.277344 437.4375 C 426.238281 437.746094 426.316406 438.058594 426.277344 438.367188 C 426.238281 438.792969 426.238281 439.183594 426.277344 439.609375 C 425.039063 443.636719 421.199219 446.429688 416.667969 446.429688 L 29.761719 446.429688 C 24.179688 446.429688 19.839844 442.089844 19.839844 436.507813 L 69.132813 170.511719 L 69.445313 169.582031 L 69.445313 168.652344 C 69.445313 163.070313 73.785156 158.730469 79.363281 158.730469 Z "/>
</g>
</svg>
