<?xml version="1.0" encoding="UTF-8"?>
<svg xmlns="http://www.w3.org/2000/svg" xmlns:xlink="http://www.w3.org/1999/xlink" width="500pt" height="500pt" viewBox="0 0 500 500" version="1.1">
<g id="surface1">
<path style=" stroke:none;fill-rule:nonzero;fill:#FFFFFF;fill-opacity:1;" d="M 467.859375 210.542969 L 409.226563 200.929688 C 405.777344 189.191406 401.089844 177.875 395.238281 167.179688 L 429.453125 118.390625 C 432.207031 114.4375 431.742188 109.089844 428.332031 105.679688 L 389.773438 67.121094 C 386.324219 63.671875 380.898438 63.207031 376.945313 66.074219 L 328.890625 100.601563 C 318.117188 94.632813 306.6875 89.90625 294.867188 86.457031 L 284.636719 28.058594 C 283.785156 23.328125 279.675781 19.839844 274.871094 19.839844 L 220.308594 19.839844 C 215.425781 19.839844 211.277344 23.367188 210.503906 28.171875 L 201.007813 86.222656 C 189.113281 89.671875 177.679688 94.363281 166.90625 100.253906 L 119.007813 66.035156 C 115.054688 63.207031 109.667969 63.632813 106.21875 67.082031 L 67.660156 105.640625 C 64.25 109.050781 63.785156 114.398438 66.539063 118.351563 L 100.253906 166.558594 C 94.285156 177.449219 89.480469 188.957031 85.992188 200.894531 L 28.171875 210.542969 C 23.367188 211.316406 19.878906 215.464844 19.878906 220.308594 L 19.878906 274.871094 C 19.878906 279.675781 23.328125 283.824219 28.058594 284.636719 L 85.875 294.90625 C 89.363281 306.84375 94.128906 318.351563 100.175781 329.242188 L 66.035156 376.984375 C 63.207031 380.9375 63.632813 386.324219 67.082031 389.773438 L 105.640625 428.371094 C 109.050781 431.78125 114.398438 432.246094 118.351563 429.492188 L 166.675781 395.664063 C 177.523438 401.59375 188.957031 406.359375 200.855469 409.769531 L 210.542969 467.898438 C 211.316406 472.703125 215.464844 476.191406 220.308594 476.191406 L 274.871094 476.191406 C 279.675781 476.191406 283.785156 472.742188 284.636719 468.015625 L 294.984375 409.574219 C 306.882813 406.085938 318.273438 401.320313 329.007813 395.351563 L 377.683594 429.453125 C 381.632813 432.246094 386.980469 431.78125 390.390625 428.371094 L 428.953125 389.773438 C 432.398438 386.324219 432.863281 380.898438 429.996094 376.945313 L 395.3125 328.777344 C 401.164063 318.042969 405.855469 306.726563 409.265625 294.945313 L 467.976563 284.636719 C 472.703125 283.824219 476.152344 279.675781 476.152344 274.871094 L 476.152344 220.308594 C 476.191406 215.464844 472.664063 211.316406 467.859375 210.542969 Z M 248.015625 317.460938 C 209.652344 317.460938 178.570313 286.378906 178.570313 248.015625 C 178.570313 209.652344 209.652344 178.570313 248.015625 178.570313 C 286.378906 178.570313 317.460938 209.652344 317.460938 248.015625 C 317.460938 286.378906 286.378906 317.460938 248.015625 317.460938 Z "/>
</g>
</svg>
