<?xml version="1.0" encoding="UTF-8"?>
<svg xmlns="http://www.w3.org/2000/svg" xmlns:xlink="http://www.w3.org/1999/xlink" width="500pt" height="500pt" viewBox="0 0 500 500" version="1.1">
<g id="surface1">
<path style=" stroke:none;fill-rule:nonzero;fill:#FFFFFF;fill-opacity:1;" d="M 220.269531 19.839844 C 215.425781 19.839844 211.277344 23.367188 210.503906 28.132813 L 200.855469 87.230469 C 189.265625 90.601563 178.183594 95.175781 167.757813 100.832031 L 119.007813 66.035156 C 115.054688 63.207031 109.667969 63.632813 106.21875 67.042969 L 67.660156 105.601563 C 64.25 109.011719 63.785156 114.398438 66.539063 118.3125 L 100.832031 167.410156 C 95.058594 177.875 90.410156 188.996094 86.960938 200.738281 L 28.132813 210.503906 C 23.367188 211.316406 19.839844 215.425781 19.839844 220.269531 L 19.839844 274.832031 C 19.839844 279.675781 23.289063 283.785156 28.058594 284.636719 L 86.882813 295.0625 C 90.332031 306.765625 94.980469 317.886719 100.757813 328.386719 L 66.035156 376.984375 C 63.207031 380.898438 63.632813 386.285156 67.042969 389.734375 L 105.640625 428.332031 C 109.050781 431.742188 114.398438 432.207031 118.3125 429.453125 L 167.488281 395.042969 C 177.953125 400.738281 189.035156 405.351563 200.699219 408.761719 L 210.503906 467.898438 C 211.316406 472.664063 215.425781 476.191406 220.269531 476.191406 L 274.832031 476.191406 C 279.675781 476.191406 283.785156 472.742188 284.636719 467.976563 L 295.140625 408.605469 C 306.765625 405.15625 317.808594 400.507813 328.195313 394.773438 L 377.683594 429.492188 C 381.632813 432.246094 386.980469 431.78125 390.390625 428.371094 L 428.953125 389.734375 C 432.398438 386.324219 432.828125 380.898438 429.996094 376.945313 L 394.695313 327.960938 C 400.351563 317.617188 404.886719 306.648438 408.296875 295.140625 L 467.976563 284.636719 C 472.703125 283.824219 476.191406 279.675781 476.191406 274.871094 L 476.191406 220.308594 C 476.152344 215.464844 472.664063 211.316406 467.859375 210.503906 L 408.257813 200.777344 C 404.847656 189.265625 400.3125 178.339844 394.65625 167.992188 L 429.453125 118.390625 C 432.207031 114.4375 431.742188 109.089844 428.332031 105.679688 L 389.734375 67.121094 C 386.324219 63.671875 380.898438 63.242188 376.945313 66.074219 L 328.117188 101.222656 C 317.691406 95.484375 306.648438 90.835938 295.023438 87.425781 L 284.636719 28.058594 C 283.824219 23.289063 279.675781 19.839844 274.832031 19.839844 Z M 228.757813 39.683594 L 266.5 39.683594 L 276.382813 96.105469 C 277.082031 99.941406 279.949219 103.042969 283.785156 104.011719 C 298.277344 107.617188 311.917969 113.351563 324.320313 120.90625 C 327.730469 122.960938 332.03125 122.769531 335.285156 120.441406 L 381.671875 87.117188 L 408.414063 113.816406 L 375.355469 160.898438 C 373.109375 164.117188 372.953125 168.378906 374.96875 171.75 C 382.410156 184.152344 388.066406 197.675781 391.710938 212.09375 C 392.640625 215.96875 395.816406 218.835938 399.730469 219.492188 L 456.347656 228.757813 L 456.347656 266.539063 L 399.617188 276.5 C 395.742188 277.195313 392.640625 280.101563 391.710938 283.902344 C 388.105469 298.316406 382.449219 311.839844 375.007813 324.28125 C 372.953125 327.652344 373.148438 331.953125 375.433594 335.171875 L 408.953125 381.671875 L 382.253906 408.449219 L 335.246094 375.433594 C 331.992188 373.1875 327.730469 373.03125 324.398438 375.085938 C 311.996094 382.601563 298.355469 388.378906 283.902344 392.019531 C 280.101563 392.988281 277.234375 396.089844 276.539063 399.925781 L 266.539063 456.347656 L 228.679688 456.347656 L 219.339844 400.195313 C 218.71875 396.28125 215.8125 393.144531 211.9375 392.175781 C 197.445313 388.609375 183.765625 382.875 171.246094 375.355469 C 167.875 373.339844 163.652344 373.496094 160.433594 375.742188 L 113.777344 408.449219 L 87.039063 381.632813 L 120.015625 335.558594 C 122.304688 332.339844 122.496094 328.039063 120.441406 324.628906 C 112.808594 312.074219 107.074219 298.394531 103.429688 283.824219 C 102.5 280.027344 99.398438 277.15625 95.5625 276.460938 L 39.683594 266.539063 L 39.683594 228.679688 L 95.523438 219.417969 C 99.4375 218.757813 102.578125 215.851563 103.546875 212.054688 C 107.1875 197.40625 112.925781 183.726563 120.480469 171.167969 C 122.535156 167.835938 122.417969 163.574219 120.132813 160.359375 L 87.582031 113.777344 L 114.320313 87.039063 L 160.589844 120.09375 C 163.769531 122.378906 168.070313 122.535156 171.441406 120.519531 C 183.878906 113.039063 197.597656 107.34375 212.167969 103.816406 C 216.007813 102.847656 218.953125 99.671875 219.570313 95.757813 Z M 248.015625 168.652344 C 204.304688 168.652344 168.652344 204.304688 168.652344 248.015625 C 168.652344 291.730469 204.304688 327.382813 248.015625 327.382813 C 291.730469 327.382813 327.382813 291.730469 327.382813 248.015625 C 327.382813 204.304688 291.730469 168.652344 248.015625 168.652344 Z M 248.015625 188.492188 C 280.996094 188.492188 307.539063 215.039063 307.539063 248.015625 C 307.539063 280.996094 280.996094 307.539063 248.015625 307.539063 C 215.039063 307.539063 188.492188 280.996094 188.492188 248.015625 C 188.492188 215.039063 215.039063 188.492188 248.015625 188.492188 Z "/>
</g>
</svg>
